<svg id="Layer_1" data-name="Layer 1" xmlns="http://www.w3.org/2000/svg" viewBox="0 0 251.49 314.83"><defs><style>.cls-1{fill:#91adce;}</style></defs><path class="cls-1" d="M510.12,436h-1.6c.29.84.57,1.66.82,2.46C509.59,437.65,509.85,436.84,510.12,436Z" transform="translate(-381.01 -287.17)"/><path class="cls-1" d="M509.58,461.85a5.66,5.66,0,0,1-1.36-1.4c-3.81,1.72-10.18-.49-18.22-5.84V584.23A17.76,17.76,0,0,0,507.77,602h8.46A17.76,17.76,0,0,0,534,584.23V453.77c0-.63,0-1.26-.1-1.87C522.8,461,514,464.92,509.58,461.85Z" transform="translate(-381.01 -287.17)"/><path class="cls-1" d="M629.44,288.2c-10.68-7.37-46.17,25.52-79.27,73.48-19.44,28.17-33.73,55.26-40,74.32-.27.84-.53,1.65-.78,2.46-.25-.8-.53-1.62-.82-2.46-6.57-18.93-22-46.44-43.11-74.94-34.62-46.86-71.16-78.6-81.6-70.88S393,342.13,427.61,389c22.57,30.55,45.95,54.66,62.39,65.62,8,5.35,14.41,7.56,18.22,5.84a5.66,5.66,0,0,0,1.36,1.4c4.45,3.07,13.22-.86,24.32-10,15.54-12.72,35.65-35.56,55-63.53C622,340.42,640.12,295.57,629.44,288.2Z" transform="translate(-381.01 -287.17)"/></svg>